<svg id="Layer_1" data-name="Layer 1" xmlns="http://www.w3.org/2000/svg" viewBox="0 0 43.263 24.561"><path d="M20.833,18.845A10.938,10.938,0,0,0,23,12.469l0-.188h1.35a6.8,6.8,0,1,1,.919,3.436,13.643,13.643,0,0,1-2.7,5.3,12.051,12.051,0,0,0,8.538,3.539,12.218,12.218,0,0,0,12.155-12.28,12.156,12.156,0,1,0-22.43,6.564Z" style="fill:#03ca9b"/><path d="M24.312,12.281a12.218,12.218,0,0,1-12.156,12.28A12.219,12.219,0,0,1,0,12.281,12.219,12.219,0,0,1,12.156,0a12.059,12.059,0,0,1,8.538,3.539,13.659,13.659,0,0,0-2.7,5.305A6.741,6.741,0,0,0,5.4,12.281a6.753,6.753,0,1,0,13.506,0Z" style="fill:#112331"/></svg>