<svg id="katman_1" data-name="katman 1" xmlns="http://www.w3.org/2000/svg" viewBox="0 0 28 28"><circle cx="14" cy="14" r="14" style="fill:#313042"/><path d="M11.2,20.6a10.375,10.375,0,0,0,.4-1,.6.6,0,0,0-.1-.4,3.108,3.108,0,0,1-.6-2.6c0-.1,0-.2.1-.2,0-.1.1-.1.1-.2a3.946,3.946,0,0,1,1,2.5c.2-.4.5-.8.7-1.3,0-.1-.1-.2-.1-.3a3.174,3.174,0,0,1-.3-3,3.376,3.376,0,0,1,.9,2.5,10.475,10.475,0,0,1,.8-1.1.367.367,0,0,0-.1-.3,3.211,3.211,0,0,1,.2-2.7c.1-.1.1-.2.2-.3a3.385,3.385,0,0,1,.3,2.4h.1a3.508,3.508,0,0,0,.5-.8,3.85,3.85,0,0,1,2.1-2.4c.2-.1.3-.1.5-.2a.9.9,0,0,1-.1.5,3.775,3.775,0,0,1-2,2.3,1.962,1.962,0,0,0-.9.9,3.31,3.31,0,0,1,2.6-.3,1.756,1.756,0,0,1-.5.4,3.222,3.222,0,0,1-2.3.6c-.3,0-.4,0-.5.2a10.908,10.908,0,0,0-.6,1.1,3.066,3.066,0,0,1,2.8-.1c-.3.2-.5.4-.7.5a3.3,3.3,0,0,1-2.2.2c-.2-.1-.3,0-.4.2-.2.4-.4.8-.7,1.3a3.43,3.43,0,0,1,2.8-.3l.1.1c-.1.1-.2.1-.4.2a3.744,3.744,0,0,1-2.5.6c-.2-.1-.4,0-.4.2-.3.8-.6,1.6-.9,2.3a4.053,4.053,0,0,1-.5.9.365.365,0,0,1-.5.2,9.685,9.685,0,0,1-5.3-6.4A9.8,9.8,0,0,1,11.5,4.7a9.933,9.933,0,0,1,6.4,18.8c-.3.1-.5.2-.7,0a.783.783,0,0,1-.1-.8c.4-1,.7-2,1-3,.2-.6.4-.8,1-.8.6-.1,1.2-.1,1.8-.2.5-.1.7-.3.7-.8v-.4c-.1-.2,0-.4.2-.6s.2-.3,0-.5c-.1-.1-.1-.3,0-.3a.375.375,0,0,0,0-.6c-.2-.2-.1-.4.1-.5a.781.781,0,0,0,.4-.4c.3-.2.2-.4,0-.6-.4-.4-.9-.7-1.3-1.1a.806.806,0,0,1-.3-.9,2.223,2.223,0,0,0-.3-1.6,8.265,8.265,0,0,1-.7-1.3,2.317,2.317,0,0,0-1.5-1.4A14.345,14.345,0,0,0,16,7.3c-.5-.1-1-.1-1.5-.2a4.088,4.088,0,0,0-3.5,1,3.328,3.328,0,0,1-1,.6c-.3.1-.5.4-.7.6a.9.9,0,0,1-.6.6,8.064,8.064,0,0,0-1.4,1.2c-.1.2-.4.3-.5.4a1.05,1.05,0,0,0-.5,1.4,2.462,2.462,0,0,1,.1,1.2,1.7,1.7,0,0,0,0,1,.961.961,0,0,0,.7.9.634.634,0,0,1,.5.6,2.384,2.384,0,0,0,.6,1.1,4.129,4.129,0,0,1,.7,1.1,1.651,1.651,0,0,0,1,1c.5.2.9.4,1.4.6C11,20.5,11.1,20.5,11.2,20.6Z" style="fill:#00dacc"/></svg>