<svg id="Layer_1" data-name="Layer 1" xmlns="http://www.w3.org/2000/svg" xmlns:xlink="http://www.w3.org/1999/xlink" viewBox="0 0 750 750"><defs><clipPath id="clip-path"><rect width="750" height="750" style="fill:none"/></clipPath></defs><g style="clip-path:url(#clip-path)"><path d="M369.925,13.068C220.459,13.107,99.3,134.264,99.262,283.731a276.608,276.608,0,0,0,4.789,50.959l35.021-23.943c61.466-42.168,161.168-42.168,222.634,0l36.665,25.158,19.94,13.651c55.391,37.951,145.159,37.951,200.478,0l16.3-11.15C665.124,191.892,570.7,48.768,424.187,18.729a270.794,270.794,0,0,0-54.119-5.518Z" style="fill:#f2b705"/><path d="M522.089,446.329A194.486,194.486,0,0,1,412.951,415.31l-56.534-38.738a195.546,195.546,0,0,0-204.551,0l-36.522,25.016A15.89,15.89,0,0,1,97.4,375.357l36.522-25.015a227.78,227.78,0,0,1,240.431,0l56.534,38.738a174.388,174.388,0,0,0,182.324,0l21.441-14.652a15.889,15.889,0,0,1,17.94,26.23L631.154,415.31a195.19,195.19,0,0,1-109.065,31.019" style="fill:#53cbc8"/><path d="M253,560.04V407.091a62.327,62.327,0,0,1,.357-9.649,17.3,17.3,0,0,1,17.153-15.3,16.724,16.724,0,0,1,16.153,15.3,93,93,0,0,1,.572,16.01V718.421a17.869,17.869,0,0,1-17.21,18.5l-.3.008A17.582,17.582,0,0,1,253.146,718.4c.015-.278.038-.557.066-.835v-101.7Z" style="fill:#53cbc8"/><path d="M220.836,483.065v75.974c0,13.007-7.147,21.441-16.8,21.441s-17.3-9.076-17.368-21.441V406.948c0-13.294,7.791-22.3,17.869-21.443s16.081,8.506,16.152,21.872c.143,25.014.143,50.315.143,75.688" style="fill:#53cbc8"/><path d="M319.538,482.922V429.605c0-12.366,6.576-20.37,16.367-20.37a18.369,18.369,0,0,1,17.488,19.208c-.011.245-.028.489-.049.733q.5,54.462,0,108.994c0,12.364-7.147,19.869-17.368,19.726s-16.438-7.719-16.509-20.37V482.993Z" style="fill:#53cbc8"/><path d="M120.419,493.929v-53.39c0-12.435,6.574-20.44,16.367-20.44a18.367,18.367,0,0,1,17.487,19.208c-.011.244-.028.489-.048.732q.5,54.534,0,109.067c0,12.364-7.148,19.8-17.3,19.725s-16.509-7.718-16.581-20.44V493.929Z" style="fill:#53cbc8"/><path d="M402.517,448.616h0a16.8,16.8,0,0,1,16.8,16.8v29.017a16.8,16.8,0,0,1-33.592,0V465.412a16.8,16.8,0,0,1,16.8-16.8" style="fill:#53cbc8"/><path d="M468.985,474.06h0a16.8,16.8,0,0,1,16.8,16.8V653.74a16.8,16.8,0,0,1-33.592,0V490.856a16.8,16.8,0,0,1,16.8-16.8" style="fill:#53cbc8"/><path d="M535.024,480.35h0a16.8,16.8,0,0,1,16.8,16.8V635.585a16.8,16.8,0,0,1-33.592,0V497.146a16.8,16.8,0,0,1,16.8-16.8" style="fill:#53cbc8"/><path d="M601.993,464.554h0a16.8,16.8,0,0,1,16.8,16.8v59.679a16.8,16.8,0,0,1-33.592,0V481.35a16.8,16.8,0,0,1,16.8-16.8" style="fill:#53cbc8"/></g></svg>